<svg width="24" height="24" viewBox="0 0 24 24" fill="none" xmlns="http://www.w3.org/2000/svg">
<g id="battery_charging_20">
<mask id="mask0_54314_35764" style="mask-type:alpha" maskUnits="userSpaceOnUse" x="0" y="0" width="24" height="24">
<rect id="Bounding box" width="24" height="24" fill="#D9D9D9"/>
</mask>
<g mask="url(#mask0_54314_35764)">
<path id="battery_charging_20_2" d="M16.5 22V19H14L17.5 14V17H20L16.5 22ZM8 22C7.71667 22 7.47917 21.9042 7.2875 21.7125C7.09583 21.5208 7 21.2833 7 21V5C7 4.71667 7.09583 4.47917 7.2875 4.2875C7.47917 4.09583 7.71667 4 8 4H10V2H14V4H16C16.2833 4 16.5208 4.09583 16.7125 4.2875C16.9042 4.47917 17 4.71667 17 5V12C16.65 12 16.3083 12.0292 15.975 12.0875C15.6417 12.1458 15.3167 12.2333 15 12.35V6H9V18H11C11 18.7667 11.1333 19.4917 11.4 20.175C11.6667 20.8583 12.0417 21.4667 12.525 22H8Z" fill="#43474E"/>
</g>
</g>
</svg>
